<svg width="200" height="200" viewBox="0 0 200 200" xmlns="http://www.w3.org/2000/svg" role="img" aria-label="BemaSathi logo">
  <defs>
    <linearGradient id="heartGradient" x1="0%" y1="0%" x2="100%" y2="100%">
      <stop offset="0%" stop-color="#7ed957"/>
      <stop offset="100%" stop-color="#00c16a"/>
    </linearGradient>
  </defs>
  <rect width="200" height="200" fill="none"/>
  <path d="M100 162s-32-19-53-48C30 97 29 77 40 63c10-12 27-15 38-5 9 8 11 19 11 19s2-11 11-19c11-10 28-7 38 5 11 14 10 34-7 51-21 23-53 48-53 48z" fill="url(#heartGradient)"/>
  <path d="M92 148c-7-26-12-43-17-62-3-12 2-22 10-25 5-1 10 1 14 5l1 1 1-1c4-4 9-6 14-5 8 3 13 13 10 25-5 19-10 36-17 62h-16z" fill="#0f0f0f"/>
  <circle cx="100" cy="62" r="13" fill="#0f0f0f"/>
</svg>
